HIERARCHY
ROOT Hips
{
	OFFSET 0.00 0.00 0.00
	CHANNELS 6 Xposition Yposition Zposition Xrotation Yrotation Zrotation
	JOINT Spine
	{
		OFFSET 0.00000 7.50895 0.00000
		CHANNELS 3 Xrotation Yrotation Zrotation
		JOINT Head
		{
			OFFSET 0.00000 13.86115 0.00000
			CHANNELS 3 Xrotation Yrotation Zrotation
			End Site
			{
				OFFSET 0.00000 4.52755 0.00000
			}
		}
		JOINT LeftShoulder
		{
			OFFSET 0.00000 8.20478 0.00000
			CHANNELS 3 Xrotation Yrotation Zrotation
			JOINT LeftArm
			{
				OFFSET 6.63596 0.00000 0.00000
				CHANNELS 3 Xrotation Yrotation Zrotation
				JOINT LeftForeArm
				{
					OFFSET 10.27422 0.00000 0.00000
					CHANNELS 3 Yrotation Zrotation Xrotation
					JOINT LeftHand
					{
						OFFSET 8.52215 0.00000 0.00000
						CHANNELS 3 Xrotation Yrotation Zrotation
						JOINT LeftHandThumb1
						{
							OFFSET 0.00000 0.00000 0.00000
							CHANNELS 3 Xrotation Zrotation Yrotation
							End Site
							{
								OFFSET 0.00000 0.00000 3.93700
							}
						}
						End Site
						{
							OFFSET 3.93700 0.00000 0.00000
						}
					}
				}
			}
		}
		JOINT RightShoulder
		{
			OFFSET 0.00000 8.20478 0.00000
			CHANNELS 3 Xrotation Yrotation Zrotation
			JOINT RightArm
			{
				OFFSET -6.63596 0.00000 0.00000
				CHANNELS 3 Xrotation Yrotation Zrotation
				JOINT RightForeArm
				{
					OFFSET -10.27422 0.00000 0.00000
					CHANNELS 3 Yrotation Zrotation Xrotation
					JOINT RightHand
					{
						OFFSET -8.52215 0.00000 0.00000
						CHANNELS 3 Xrotation Yrotation Zrotation
						JOINT RightHandThumb1
						{
							OFFSET 0.00000 0.00000 0.00000
							CHANNELS 3 Xrotation Zrotation Yrotation
							End Site
							{
								OFFSET 0.00000 0.00000 3.93700
							}
						}
						End Site
						{
							OFFSET -3.93700 0.00000 0.00000
						}
					}
				}
			}
		}
	}
	JOINT LeftUpLeg
	{
		OFFSET 3.00056 0.00000 0.00000
		CHANNELS 3 Xrotation Yrotation Zrotation
		JOINT LeftLeg
		{
			OFFSET 0.00000 -16.49085 0.00000
			CHANNELS 3 Xrotation Yrotation Zrotation
			JOINT LeftFoot
			{
				OFFSET 0.00000 -14.55658 0.00000
				CHANNELS 3 Xrotation Yrotation Zrotation
				JOINT LeftToeBase
				{
					OFFSET 0.00000 -1.25038 4.66650
					CHANNELS 3 Xrotation Yrotation Zrotation
					End Site
					{
						OFFSET 0.00000 0.00000 2.95275
					}
				}
			}
		}
	}
	JOINT RightUpLeg
	{
		OFFSET -3.00056 0.00000 0.00000
		CHANNELS 3 Xrotation Yrotation Zrotation
		JOINT RightLeg
		{
			OFFSET 0.00000 -16.49085 0.00000
			CHANNELS 3 Xrotation Yrotation Zrotation
			JOINT RightFoot
			{
				OFFSET 0.00000 -14.55658 0.00000
				CHANNELS 3 Xrotation Yrotation Zrotation
				JOINT RightToeBase
				{
					OFFSET 0.00000 -1.25038 4.66650
					CHANNELS 3 Xrotation Yrotation Zrotation
					End Site
					{
						OFFSET 0.00000 0.00000 2.95275
					}
				}
			}
		}
	}
}
MOTION
Frames: 22
Frame Time: 0.008333
 39.1846 30.6691 -2.9265 118.4285 -52.6282 115.5513 -4.2132 11.1478 -5.3314 -2.7121 2.7702 3.4102 0.4374 10.2084 43.6438 -81.4810 -34.8226 -18.7022 -8.3930 0.0000 -47.8516 1.6822 21.3032 -4.6217 33.1476 -0.0000 26.2537 -76.1263 57.6701 -33.9123 -9.9658 -5.3719 43.8780 36.7836 0.0000 13.3323 -1.9656 -10.3398 -10.8247 32.8623 0.0000 -24.3270 -76.9529 11.7919 8.8037 53.4666 0.0000 0.0000 4.1636 15.3882 -11.8363 -12.8270 -0.0000 -0.0000 -1.5365 -6.6275 2.7149 0.5159 -0.0000 0.0000 -11.9184 3.5304 10.7690 -12.5074 0.0000 -0.0000
 38.8812 30.6046 -2.9321 117.9578 -51.9168 114.9356 -3.9032 11.0771 -5.7573 -3.4923 3.1617 3.5514 -0.3882 8.8150 43.9859 -79.1328 -33.6516 -18.6350 -8.4459 0.0000 -48.4269 1.3348 22.1902 -3.5304 33.1476 -0.0000 26.2537 -74.6322 56.9140 -34.9117 -10.7864 -4.8655 43.5872 36.3644 0.0000 13.2312 -1.9551 -10.3398 -10.7682 32.8623 0.0000 -24.3270 -77.5697 11.5437 8.7722 54.4189 -0.0000 -0.0000 2.6487 15.6462 -11.7626 -12.9525 0.0000 0.0000 -1.8006 -6.5774 2.8133 0.5355 -0.0000 0.0000 -11.1381 3.8486 10.0948 -13.6389 0.0000 0.0000
 38.5726 30.5466 -2.9433 117.5229 -51.1979 114.2995 -3.5267 11.0034 -6.1465 -4.1994 3.4737 3.6160 -0.9146 7.7517 44.0217 -77.4650 -32.6498 -18.7246 -8.4060 0.0000 -49.2798 1.0961 22.7823 -2.8286 33.1476 -0.0000 26.2537 -74.9019 57.0410 -34.5183 -10.2943 -4.7648 43.3757 36.1520 0.0000 13.0702 -1.9884 -10.1775 -11.1161 32.8623 0.0000 -24.3270 -78.1359 11.2372 8.7458 55.3139 -0.0000 0.0000 1.0175 15.8663 -11.2542 -12.8095 0.0000 0.0000 -2.1007 -6.8904 3.0056 0.7966 0.0000 -0.0000 -10.7079 3.9489 10.6919 -12.9382 0.0000 -0.0000
 38.2661 30.4897 -2.9632 117.1034 -50.3962 113.6194 -3.2210 10.9589 -6.4949 -4.9808 3.6972 3.5928 -1.5455 6.4264 44.1770 -75.7814 -31.2765 -18.9988 -8.5127 0.0000 -50.1689 0.7706 23.4620 -1.9348 33.1476 -0.0000 26.2537 -74.0428 56.6350 -35.0421 -10.6451 -4.5299 43.1949 35.8797 0.0000 12.9719 -2.0272 -10.1859 -11.3187 32.8623 0.0000 -24.3270 -78.8007 10.9830 8.8352 56.2008 0.0000 -0.0000 -0.6336 16.0004 -10.7916 -12.4029 0.0000 -0.0000 -2.5122 -7.3138 3.3243 1.0924 -0.0000 0.0000 -10.1916 3.8927 11.0405 -12.0264 0.0000 -0.0000
 37.9554 30.4334 -2.9803 116.6867 -49.5895 112.9663 -2.8969 10.8780 -6.9175 -5.7243 3.9776 3.5946 -2.2945 5.0190 44.4055 -74.2041 -29.7170 -19.5821 -8.6502 0.0000 -51.0789 0.4647 23.8746 -1.1480 33.1476 -0.0000 26.2537 -73.3832 56.2863 -35.3449 -10.8569 -4.3688 43.0202 35.7177 0.0000 12.9985 -2.0721 -10.3628 -11.3723 32.8623 0.0000 -24.3270 -79.4287 10.7409 8.8855 57.0423 -0.0000 -0.0000 -2.2196 16.1444 -10.2191 -12.1463 -0.0000 0.0000 -2.9394 -7.7075 3.5810 1.4257 0.0000 -0.0000 -9.7268 3.9342 11.5437 -11.3534 0.0000 -0.0000
 37.6413 30.3762 -3.0002 116.3047 -48.7704 112.3578 -2.5374 10.7524 -7.4037 -6.6832 4.1162 3.6377 -2.8767 3.7378 44.7084 -72.8540 -27.9007 -20.2574 -8.9613 0.0000 -51.7730 0.1921 24.6275 -0.4611 33.1476 -0.0000 26.2537 -72.7388 55.9343 -35.6332 -11.0475 -4.2105 42.9039 35.4999 0.0000 13.1008 -2.0976 -10.2511 -11.6296 32.8623 0.0000 -24.3270 -80.0440 10.5138 8.9383 57.8987 0.0000 -0.0000 -3.9385 16.3007 -9.3575 -11.4804 -0.0000 0.0000 -3.3684 -8.1030 3.8506 1.7712 0.0000 0.0000 -9.2273 3.9226 11.8960 -11.2862 -0.0000 -0.0000
 37.3197 30.3190 -3.0230 115.9936 -47.9462 111.8056 -2.0918 10.6647 -7.9328 -7.6074 4.2187 3.6820 -4.5189 1.3947 45.1508 -70.1130 -25.8085 -21.1211 -9.3433 0.0000 -52.3333 0.2054 25.2696 -0.4811 33.1476 -0.0000 26.2537 -72.1620 55.6260 -35.9532 -11.1862 -4.1685 42.8763 35.3620 0.0000 13.3899 -2.1072 -10.2596 -11.6724 32.8623 0.0000 -24.3270 -80.6191 10.2996 9.0353 58.7157 0.0000 -0.0000 -5.5420 16.4036 -8.8235 -11.2600 0.0000 0.0000 -3.7734 -8.5644 4.1014 2.0936 -0.0000 0.0000 -8.7108 4.0697 12.3844 -10.5692 -0.0000 -0.0000
 37.0016 30.2645 -3.0450 115.6969 -47.0519 111.2333 -1.6600 10.5370 -8.4252 -8.6405 4.3681 3.6360 -6.4085 -1.2836 45.7375 -66.9090 -23.2560 -22.1490 -10.0071 0.0000 -52.7430 -0.2192 26.2341 0.4959 33.1476 -0.0000 26.2537 -72.0296 55.5493 -35.9192 -10.9822 -4.0861 42.8619 35.2144 0.0000 13.6656 -2.1294 -10.3291 -11.7154 32.8623 0.0000 -24.3270 -81.2408 10.0015 9.1409 59.4330 -0.0000 -0.0000 -6.9000 16.3692 -8.6123 -11.7187 -0.0000 0.0000 -4.2466 -9.0082 4.4161 2.4040 -0.0000 -0.0000 -8.0877 4.1037 12.7250 -10.0274 -0.0000 -0.0000
 36.6801 30.2088 -3.0613 115.4405 -46.1282 110.7626 -1.1746 10.3947 -9.0513 -9.8292 4.6385 3.7172 -8.8755 -4.6210 46.4090 -62.7069 -20.3482 -23.3283 -10.8996 0.0000 -53.1090 -0.6257 27.2263 1.3675 33.1476 -0.0000 26.2537 -71.4294 55.2512 -36.2814 -11.0830 -3.9589 42.8456 35.0272 0.0000 13.8967 -2.1331 -10.3276 -11.7372 32.8623 0.0000 -24.3270 -81.8669 9.7287 9.2082 60.1840 0.0000 -0.0000 -8.3449 16.5731 -8.2570 -11.6314 0.0000 -0.0000 -4.7545 -9.4455 4.6192 2.7305 0.0000 -0.0000 -7.5151 4.2602 13.2740 -9.2040 -0.0000 -0.0000
 36.3624 30.1542 -3.0820 115.1998 -45.1731 110.2290 -0.6535 10.2640 -9.6147 -11.1341 4.8762 3.8044 -27.8769 -29.8857 47.1565 -32.8509 -5.5894 -27.5351 -17.6079 0.0000 -50.8882 -2.4938 28.7297 5.1773 33.1476 -0.0000 26.2537 -70.7792 54.9803 -36.6847 -11.1249 -3.7872 42.7448 34.8121 0.0000 13.9371 -2.0992 -10.2062 -11.6873 32.8623 0.0000 -24.3270 -82.5465 9.3709 9.2953 60.9840 -0.0000 -0.0000 -9.8559 16.9234 -7.6407 -11.2107 -0.0000 0.0000 -5.2756 -9.9360 4.9272 3.0468 0.0000 -0.0000 -6.8902 4.3482 13.7206 -8.3674 0.0000 0.0000
 36.0385 30.1052 -3.0951 114.9743 -44.1796 109.7363 -0.1586 10.0742 -10.2892 -12.3828 5.1911 4.1137 -26.1825 -28.0740 47.0497 -34.6747 -6.0011 -27.9555 -16.5159 0.0000 -53.0583 -2.7509 29.1912 5.6265 33.1476 -0.0000 26.2537 -70.2626 54.5219 -36.8604 -11.3017 -3.4715 42.6553 34.5633 0.0000 13.8237 -2.0685 -10.1082 -11.6283 32.8623 0.0000 -24.3270 -83.1923 8.9519 9.3237 61.6792 0.0000 -0.0000 -11.2395 17.2212 -7.2676 -11.0264 0.0000 0.0000 -5.8318 -10.3688 5.1635 3.3214 -0.0000 0.0000 -6.2026 4.5337 14.1100 -7.0146 0.0000 -0.0000
 35.7155 30.0543 -3.1111 114.7913 -43.1556 109.2193 0.4112 9.9580 -10.9054 -13.7987 5.3864 4.2595 -24.5679 -26.5100 46.8954 -36.0705 -6.4140 -28.4081 -15.4204 0.0000 -56.2667 -2.4346 28.9452 5.0206 33.1476 -0.0000 26.2537 -69.7470 54.0801 -37.1476 -11.4419 -3.0872 42.5766 34.2935 0.0000 13.6354 -2.0951 -10.1438 -11.7341 32.8623 0.0000 -24.3270 -83.8466 8.3660 9.3562 62.3496 -0.0000 0.0000 -12.4630 17.5377 -7.5245 -11.2139 -0.0000 -0.0000 -6.3691 -10.8550 5.4715 3.5785 0.0000 -0.0000 -5.4964 4.7573 14.3726 -5.9476 0.0000 -0.0000
 35.3900 30.0058 -3.1286 114.6106 -42.0867 108.6705 0.9540 9.7740 -11.5283 -15.2317 5.5806 4.4266 -24.0668 -26.2119 46.5614 -36.1278 -5.9152 -29.2730 -14.9953 0.0000 -58.5215 -2.3095 29.1622 4.7313 33.1476 -0.0000 26.2537 -70.0880 54.0514 -36.7049 -10.9248 -2.7939 42.4967 34.0659 0.0000 13.3780 -2.0530 -9.8511 -11.8335 32.8623 0.0000 -24.3270 -84.5011 7.7052 9.3671 62.9980 0.0000 -0.0000 -13.8862 17.9188 -7.4525 -10.7327 0.0000 0.0000 -6.9420 -11.3539 5.8179 3.8542 0.0000 -0.0000 -4.7609 4.9961 14.6280 -5.0403 0.0000 -0.0000
 35.0671 29.9606 -3.1416 114.4264 -40.9625 108.0673 1.4930 9.5554 -12.1234 -16.7318 5.7786 4.6746 -23.6452 -26.0835 46.1866 -36.8877 -5.1136 -30.3956 -14.6074 0.0000 -60.6753 -3.2954 29.8105 6.6067 33.1476 -0.0000 26.2537 -69.6623 53.5518 -36.8447 -11.1770 -2.4403 42.3604 33.9678 0.0000 12.7640 -2.0459 -9.8954 -11.7428 32.8623 0.0000 -24.3270 -85.1440 6.9218 9.3181 63.5147 0.0000 0.0000 -15.4099 18.1880 -7.2078 -9.6409 0.0000 -0.0000 -7.5496 -11.9756 6.1905 4.0839 -0.0000 0.0000 -4.0352 5.3781 14.9437 -3.3888 0.0000 0.0000
 34.7431 29.9169 -3.1545 114.3045 -39.7992 107.4964 2.0560 9.3104 -12.7407 -18.3526 6.0379 4.8524 -22.7498 -25.4679 45.8232 -37.6306 -4.8223 -31.2201 -14.3278 0.0000 -62.4506 -3.8215 30.8438 7.4230 33.1476 -0.0000 26.2537 -68.6110 52.6607 -37.4557 -12.0454 -1.9121 42.2088 33.7586 0.0000 12.3778 -2.0455 -9.8160 -11.8319 32.8623 0.0000 -24.3270 -85.7497 6.1226 9.2824 63.9702 -0.0000 0.0000 -16.9180 18.5995 -6.9488 -9.1851 -0.0000 0.0000 -8.1777 -12.5138 6.5823 4.3422 -0.0000 -0.0000 -3.2970 5.6755 15.3279 -2.3289 0.0000 -0.0000
 34.4183 29.8764 -3.1608 114.1699 -38.5789 106.8734 2.6675 9.1024 -13.2661 -20.1915 6.3156 4.8513 -21.6632 -24.4864 45.2669 -38.4314 -5.0248 -31.9419 -14.2837 0.0000 -64.6128 -3.8663 31.2077 7.4311 33.1476 -0.0000 26.2537 -67.6249 52.1248 -38.1472 -12.4938 -1.6656 42.0049 33.8645 0.0000 11.9801 -2.0205 -9.7074 -11.8172 32.8623 0.0000 -24.3270 -86.3457 5.2547 9.1942 64.3418 -0.0000 0.0000 -18.4514 19.0389 -6.5599 -8.8598 -0.0000 -0.0000 -8.8451 -13.1388 7.0068 4.5548 0.0000 -0.0000 -2.5099 6.1180 15.5939 -0.7660 0.0000 -0.0000
 34.0954 29.8409 -3.1677 114.0926 -37.3229 106.2346 3.3084 8.7969 -13.7676 -22.1973 6.7795 4.9657 -21.0873 -24.0823 44.6824 -39.9992 -4.3735 -33.0663 -13.8043 0.0000 -65.2936 -4.3180 32.2008 8.0647 33.1476 -0.0000 26.2537 -67.3253 51.9198 -38.4224 -12.4755 -1.3302 41.9341 33.8809 0.0000 11.8963 -2.1295 -9.8995 -12.2044 32.8623 0.0000 -24.3270 -86.9294 4.2758 9.1180 64.6447 -0.0000 0.0000 -19.9564 19.5249 -6.1980 -8.6473 -0.0000 0.0000 -9.4918 -13.7880 7.5048 4.7387 0.0000 -0.0000 -1.8271 6.5240 15.8890 0.5699 -0.0000 -0.0000
 33.7639 29.8132 -3.1612 114.0350 -35.9061 105.6327 3.7987 8.3608 -14.2765 -24.3349 7.3594 4.9327 -20.6030 -23.4276 44.0530 -41.5572 -3.9401 -34.3428 -13.2509 0.0000 -66.1651 -4.8153 32.8463 8.8284 33.1476 -0.0000 26.2537 -67.1571 51.7689 -38.5336 -12.3983 -1.0014 41.8131 34.0783 0.0000 11.9359 -2.1293 -9.6855 -12.4618 32.8623 0.0000 -24.3270 -87.6034 3.3400 9.0233 64.8754 -0.0000 -0.0000 -21.4045 20.2061 -5.6793 -9.0479 0.0000 -0.0000 -10.2805 -14.3068 7.9139 4.9144 0.0000 -0.0000 -1.2718 7.0675 16.1812 1.7848 0.0000 -0.0000
 33.4320 29.7920 -3.1600 114.0591 -34.4911 105.0371 4.4085 7.9704 -14.8649 -26.6984 7.8875 5.2227 -19.8051 -22.7861 43.6384 -43.1498 -3.5385 -35.4915 -12.9177 0.0000 -66.9951 -6.1506 33.9043 10.9342 33.1476 -0.0000 26.2537 -66.7893 51.2713 -38.7675 -12.4700 -0.2517 41.5342 34.1748 0.0000 11.7208 -2.3547 -9.9320 -13.4095 32.8623 0.0000 -24.3270 -88.2787 2.4152 9.0015 65.0828 -0.0000 0.0000 -22.9839 20.7805 -4.7811 -8.2457 0.0000 -0.0000 -10.9827 -14.9024 8.4067 5.0023 -0.0000 -0.0000 -0.6274 7.8930 16.2982 3.3481 0.0000 -0.0000
 33.1019 29.7813 -3.1514 114.0929 -33.0002 104.4459 5.0081 7.5303 -15.5190 -29.1551 8.3604 5.6843 -11.5469 -13.6942 43.2634 -56.8950 -7.4225 -36.1206 -10.1927 0.0000 -67.2819 -7.4123 35.8582 12.5215 33.1476 -0.0000 26.2537 -66.9877 51.0416 -38.6235 -12.3782 0.2117 41.2946 34.2293 0.0000 11.6348 -2.3159 -9.4850 -13.7890 32.8623 0.0000 -24.3270 -89.0171 1.4546 8.9510 65.2261 0.0000 -0.0000 -24.2013 21.4852 -4.5312 -8.3348 -0.0000 -0.0000 -11.7790 -15.4226 8.8856 5.1510 -0.0000 0.0000 0.0227 8.5803 15.9382 4.5511 -0.0000 0.0000
 32.7777 29.7833 -3.1352 114.1452 -31.5241 103.9104 5.7771 7.1746 -16.4071 -31.8166 8.4080 6.3866 -9.0440 -11.7195 42.7924 -61.4558 -7.9735 -37.2381 -8.9803 0.0000 -67.4458 -8.4643 37.0685 13.8681 33.1476 -0.0000 26.2537 -66.8671 50.3870 -38.5684 -12.4488 1.0151 40.6768 34.2285 0.0000 11.6072 -2.3904 -9.4573 -14.2545 32.8623 0.0000 -24.3270 -89.7531 0.5426 8.8597 65.3355 -0.0000 0.0000 -25.4371 22.3029 -4.2310 -7.7052 0.0000 -0.0000 -12.5689 -15.8966 9.2709 5.2731 0.0000 -0.0000 0.7980 9.1265 15.9478 5.1683 -0.0000 0.0000
 32.4459 29.7958 -3.1086 114.1803 -29.8674 103.3569 6.3309 6.5505 -17.2004 -34.6134 8.9204 6.9394 -7.5735 -10.8575 42.5846 -63.2943 -8.0031 -38.2047 -8.6712 0.0000 -68.2745 -9.1593 37.8306 14.7291 33.1476 -0.0000 26.2537 -66.4625 49.7635 -38.9013 -12.8904 1.5575 40.3206 34.2411 0.0000 11.5008 -2.4098 -9.1608 -14.8068 32.8623 0.0000 -24.3270 -90.6335 -0.4102 8.7496 65.4320 -0.0000 -0.0000 -26.4719 23.1098 -3.6885 -7.4141 0.0000 0.0000 -13.5181 -16.4045 9.6224 5.3584 0.0000 -0.0000 2.0225 9.7649 15.7358 5.9031 -0.0000 0.0000
